<?xml version="1.0" encoding="UTF-8"?>
<svg version="1.1" xmlns="http://www.w3.org/2000/svg" width="903" height="180">
<path d="M0 0 C1.03125 0.7425 2.0625 1.485 3.125 2.25 C19.96465083 18.3574921 24.5948955 42.90347886 25.2890625 65.25390625 C25.73167231 90.76476856 24.52755806 121.62013836 6.09399414 141.50976562 C-11.9716446 159.84822342 -38.15072072 163.17670857 -62.74252319 163.36886597 C-89.06877242 163.44039985 -115.52477409 160.75253042 -135.4921875 141.6953125 C-152.91973706 122.96476858 -155.7839266 93.71946977 -155.25 69.12890625 C-154.29749814 44.86392142 -150.27547611 19.4917936 -132 2 C-101.18488955 -25.76472578 -32.81794042 -24.41654767 0 0 Z " fill="#D80000" transform="translate(155,17)"/>
<path d="M0 0 C3.24044458 2.56535196 4.69560167 4.086805 6 8 C6.10140944 9.83331803 6.14571072 11.67002215 6.15771484 13.50610352 C6.16797699 14.63480362 6.17823914 15.76350372 6.18881226 16.92640686 C6.19611359 18.14823166 6.20341492 19.37005646 6.2109375 20.62890625 C6.23901924 23.21680306 6.26768378 25.80469359 6.296875 28.39257812 C6.33917216 32.47172635 6.37595985 36.55083708 6.40136719 40.63012695 C6.42654493 44.5674326 6.47499133 48.5043169 6.5234375 52.44140625 C6.52669037 53.64906143 6.52994324 54.85671661 6.53329468 56.10096741 C6.64686965 63.99028567 6.85555642 72.31650895 12.1875 78.5625 C17.21355699 81.13137357 21.32523799 81.279127 26.75 80.375 C30.55197527 78.766472 31.88616126 77.52306457 34 74 C36.56009726 67.32066145 36.27915071 60.70152334 36.2734375 53.62109375 C36.28853262 51.65704267 36.3036508 49.69299146 36.32012367 47.72895145 C36.35776763 42.91123149 36.37505882 38.09349013 36.38085938 33.27563477 C36.38491067 30.56305473 36.39949944 27.8509038 36.42520142 25.13844299 C36.4485901 22.59096434 36.45603394 20.04327713 36.44564819 17.49571228 C36.56805743 6.80665342 36.56805743 6.80665342 41 2 C43.92672672 -0.37302167 45.68309204 -0.95966626 49.4375 -1.4375 C53.774191 -0.90492391 55.73460574 0.10567327 59 3 C62.80293534 9.50965089 62.42435481 15.95819428 62.40625 23.34375 C62.42280798 25.30430122 62.43938242 27.26485247 62.45691681 29.2253952 C62.48898612 33.34259391 62.49478483 37.45991059 62.50531006 41.57720947 C62.51501811 44.97432809 62.53053152 48.37118668 62.56091309 51.76818848 C62.58237207 54.30904437 62.59082354 56.85005234 62.58459473 59.39099121 C62.64720937 66.56273762 62.96702702 71.97302747 67.39453125 77.8515625 C71.3163208 80.65693021 76.58693128 81.27953777 81.29296875 80.734375 C85.31677634 79.55667522 86.83108779 78.25476793 89.19506836 74.68920898 C91.86441823 68.94316421 91.54637851 63.07199889 91.50390625 56.84765625 C91.51332748 55.59295029 91.52274872 54.33824432 91.53245544 53.04551697 C91.55620282 49.72631523 91.56475725 46.40791451 91.56335449 43.08868408 C91.56138659 38.42236729 91.57107667 33.7564118 91.60325623 29.0901947 C91.61995732 26.61268032 91.62298973 24.13502386 91.61024475 21.65748596 C91.65436439 14.38452271 91.84424417 6.88400718 96.625 1 C100.37467436 -0.57881026 103.92864605 -1.22618633 108 -1 C113.06309576 1.34402581 115.08777476 3.83291599 117 9 C117.4565176 13.45503764 117.44407785 17.89182493 117.43359375 22.3671875 C117.4388356 23.67470978 117.44407745 24.98223206 117.44947815 26.32937622 C117.45839693 29.098263 117.45600734 31.86686134 117.44604492 34.63574219 C117.43691174 37.44431533 117.44363397 40.25205321 117.46655273 43.06054688 C117.79159467 83.04986436 117.79159467 83.04986436 105.03515625 97.17578125 C96.99285917 105.13082014 88.0327118 107.34951216 77 107.5 C66.27674581 107.38704123 57.38029956 104.85660873 49 98 C48.45472656 98.39832031 47.90945313 98.79664063 47.34765625 99.20703125 C46.59355469 99.73683594 45.83945312 100.26664062 45.0625 100.8125 C44.33160156 101.33457031 43.60070312 101.85664063 42.84765625 102.39453125 C36.0145829 106.2469224 29.40960321 107.53786427 21.625 107.4375 C20.79572998 107.42992676 19.96645996 107.42235352 19.11206055 107.41455078 C8.98979406 107.14356876 0.33112927 104.17580874 -7 97 C-17.08334958 85.80086993 -18.62773302 72.12402014 -18.49609375 57.58984375 C-18.49624926 56.16451443 -18.49774685 54.7391847 -18.50050354 53.31385803 C-18.50187349 50.35821347 -18.4895555 47.40306259 -18.46655273 44.44750977 C-18.4379351 40.6681358 -18.44098723 36.88956507 -18.45364285 33.11012936 C-18.46060183 30.18037583 -18.45281227 27.25080724 -18.44038582 24.32107735 C-18.43588989 22.92688265 -18.43551817 21.53266801 -18.43945122 20.1384716 C-18.44237129 18.19636604 -18.4236682 16.25426456 -18.40405273 14.31225586 C-18.39864975 13.21086777 -18.39324677 12.10947968 -18.38768005 10.97471619 C-17.78986223 6.38758737 -15.53534173 2.9461181 -12 0 C-7.8213874 -1.39287087 -4.24905937 -1.10326454 0 0 Z " fill="#D80000" transform="translate(223,39)"/>
<path d="M0 0 C2.70552388 2.19823815 4.44778333 3.89556667 6 7 C6.09939344 8.69914008 6.13507261 10.40216606 6.14044189 12.10420227 C6.14615204 13.18515167 6.15186218 14.26610107 6.15774536 15.37980652 C6.15942215 17.16660576 6.15942215 17.16660576 6.16113281 18.98950195 C6.16858017 20.86520874 6.16858017 20.86520874 6.17617798 22.77880859 C6.18830067 26.21488232 6.19574857 29.65089508 6.20018864 33.08698297 C6.20311848 35.23350491 6.20722315 37.3800215 6.21169281 39.52654076 C6.22537057 46.24185674 6.23503552 52.95716051 6.2388947 59.67248946 C6.24337451 67.42537566 6.26091752 75.17808547 6.2898953 82.93091804 C6.31151279 88.92249803 6.32159904 94.9140284 6.32293582 100.90564698 C6.32398393 104.48456898 6.32989254 108.06332524 6.34775543 111.64220619 C6.36729932 115.63568442 6.36294691 119.62879371 6.35644531 123.62231445 C6.3656601 124.80744125 6.37487488 125.99256805 6.3843689 127.21360779 C6.37879974 128.30301666 6.37323059 129.39242554 6.36749268 130.5148468 C6.36969252 131.93097244 6.36969252 131.93097244 6.3719368 133.37570667 C5.80477168 137.37748234 4.02143334 140.03366472 1.1171875 142.78125 C-2.73484082 144.99865376 -6.70695648 144.7313071 -11 144 C-14.96974051 141.95841917 -17.15563568 138.99612269 -19 135 C-19.70962891 135.58007812 -19.70962891 135.58007812 -20.43359375 136.171875 C-31.89840763 145.20069529 -42.7217832 146.92559869 -57 146 C-68.64059049 144.20445794 -79.62638137 136.77000296 -86.5625 127.4375 C-96.73420008 112.24746116 -99.0803135 94.80683446 -95.75390625 77.01171875 C-92.24018106 62.97502384 -84.49900981 50.68585519 -72.3125 42.75 C-61.35350553 36.54929814 -49.19972555 35.50500545 -37 38.0625 C-32.4309931 39.34313376 -28.68828395 41.18030166 -24.625 43.62109375 C-23.56539062 44.25329834 -22.50578125 44.88550293 -21.4140625 45.53686523 C-20.61742187 46.01969971 -19.82078125 46.50253418 -19 47 C-18.9906543 45.81970215 -18.98130859 44.6394043 -18.97167969 43.42333984 C-18.93169352 39.02843002 -18.86591085 34.63421387 -18.79248047 30.23974609 C-18.7643208 28.34074846 -18.74308142 26.4416347 -18.72900391 24.54248047 C-18.70750482 21.80636362 -18.66081992 19.07163548 -18.609375 16.3359375 C-18.60814636 15.49195404 -18.60691772 14.64797058 -18.60565186 13.77841187 C-18.4731498 8.40016838 -17.57338345 5.26760755 -14 1 C-9.7121605 -1.8177231 -4.78694932 -1.37017752 0 0 Z M-65.875 68.625 C-73.22392448 77.97185904 -74.15220981 88.53668808 -73 100 C-71.23246062 107.53686737 -67.18426559 115.02813646 -60.7890625 119.5703125 C-53.78973598 123.63968838 -46.81194441 125.10752088 -38.765625 123.57421875 C-31.41212289 121.50763109 -26.21787878 117.59682081 -22.203125 111.0859375 C-16.53605891 100.21056781 -15.78681251 90.67533114 -18.9609375 78.8984375 C-21.44520567 71.96863681 -26.81844097 65.97747855 -33 62 C-44.9587235 57.193386 -56.91059619 59.39470285 -65.875 68.625 Z " fill="#D80000" transform="translate(684,1)"/>
<path d="M0 0 C11.80604224 10.16318233 18.43686554 22.18594034 20.11328125 37.71484375 C20.35031625 42.54804521 20.2848804 45.9016515 17.17578125 49.83984375 C13.17719908 52.80862265 10.29729325 53.20786701 5.3659668 53.18041992 C4.70199387 53.180858 4.03802094 53.18129608 3.35392761 53.18174744 C1.17314596 53.17966798 -1.00685371 53.15637836 -3.1875 53.1328125 C-4.70492635 53.12721351 -6.22235815 53.12294484 -7.73979187 53.11994934 C-11.72326775 53.10852433 -15.70641269 53.0790777 -19.6897583 53.0458374 C-23.75862146 53.01508572 -27.82753837 53.00143314 -31.89648438 52.98632812 C-39.87254728 52.95420542 -47.84834178 52.90303784 -55.82421875 52.83984375 C-55.2094912 54.43945534 -54.58847611 56.03665152 -53.96484375 57.6328125 C-53.61969727 58.52250732 -53.27455078 59.41220215 -52.91894531 60.32885742 C-50.08027435 66.83994816 -45.09365082 70.74598993 -38.82421875 73.83984375 C-29.58763733 77.42668523 -19.8737487 76.4903321 -10.82421875 72.83984375 C-9.62029351 72.1598023 -8.43091438 71.45299952 -7.26171875 70.71484375 C-3.08940668 68.43903716 0.43066095 67.60793937 5.17578125 67.83984375 C8.86393919 69.36321333 11.30484736 71.29491638 13.17578125 74.83984375 C13.69394525 78.8371089 13.45468299 81.21865351 11.80078125 84.90234375 C4.52493361 93.04436373 -8.01831323 98.31221504 -18.89819336 98.96411133 C-36.3346478 99.54490691 -50.67759414 97.62705239 -64.57421875 86.15234375 C-75.51711376 75.8162998 -80.06793492 62.58692108 -80.80078125 47.7890625 C-81.26799521 30.43540127 -75.6014873 15.63644455 -63.98828125 2.8125 C-46.57959058 -13.97182835 -18.80920233 -14.38656831 0 0 Z M-52.4140625 22.44921875 C-54.41029317 25.57483444 -54.41029317 25.57483444 -55.82421875 32.83984375 C-39.32421875 32.83984375 -22.82421875 32.83984375 -5.82421875 32.83984375 C-7.92748104 24.42679458 -9.83103886 20.3667724 -16.79296875 15.44921875 C-29.35927402 8.79095252 -43.36008502 12.26081856 -52.4140625 22.44921875 Z " fill="#D80000" transform="translate(438.82421875,48.16015625)"/>
<path d="M0 0 C11.09288622 10.82011033 16.60952202 22.87092945 17.10327148 38.28955078 C17.22494653 55.21742106 13.28644347 69.06847022 1.6015625 81.80859375 C-11.63420634 94.00477155 -26.74548929 96.50460429 -43.9921875 95.86230469 C-55.83597014 95.01564451 -68.73795042 88.6594352 -76.78125 79.88671875 C-85.68223119 68.06772722 -90.03417648 56.14724648 -89.875 41.3125 C-89.86670166 40.30735352 -89.85840332 39.30220703 -89.84985352 38.26660156 C-89.51411106 23.46525792 -84.41341912 12.06746218 -74.5 1 C-54.02069455 -18.46409201 -21.08795349 -18.0753887 0 0 Z M-59.7421875 21.1796875 C-65.70290759 29.99715823 -66.92065911 39.81817645 -64.96484375 50.1953125 C-62.40687975 58.98735643 -57.50283324 65.80305552 -49.6640625 70.53515625 C-43.20434164 73.87834512 -36.74754649 74.78211498 -29.73046875 73 C-20.46367748 69.95755143 -15.54131921 66.26602101 -11.0625 57.5625 C-6.69765462 48.38932229 -5.78996464 38.84406738 -8.875 29 C-11.98128783 21.51865888 -17.4089787 14.899377 -24.625 11.0625 C-38.19918308 6.10270234 -50.86999604 10.29598705 -59.7421875 21.1796875 Z " fill="#D80000" transform="translate(798.4375,51.3125)"/>
<path d="M0 0 C9.77116481 7.767353 12.42117398 18.51278195 13.84765625 30.46875 C14.12051865 35.31193872 14.15190336 40.14209478 14.1484375 44.9921875 C14.15233699 46.35071948 14.15667418 47.70925026 14.16142273 49.06777954 C14.16881602 51.88979077 14.1686413 54.71167668 14.16333008 57.53369141 C14.15749804 61.13809789 14.17458866 64.74199672 14.19767475 68.3463192 C14.21243285 71.14139771 14.21328179 73.93635382 14.21016502 76.73146439 C14.21092217 78.70229609 14.22474911 80.67310894 14.23884583 82.64389038 C14.23261703 83.84599152 14.22638824 85.04809265 14.2199707 86.28662109 C14.22060013 87.33852631 14.22122955 88.39043152 14.22187805 89.47421265 C13.67540611 93.84710229 12.11268039 97.22213578 8.96875 100.3203125 C5.11396116 102.40743574 1.10402227 101.98613647 -3.15234375 101.46875 C-6.83857386 99.85602433 -7.90589375 98.838425 -10.15234375 95.46875 C-11.11789875 91.82489 -11.28595348 88.37087022 -11.31005859 84.61206055 C-11.32032074 83.45703537 -11.33058289 82.30201019 -11.34115601 81.11198425 C-11.34845734 79.87233414 -11.35575867 78.63268402 -11.36328125 77.35546875 C-11.38416494 75.39407132 -11.40506617 73.4326739 -11.42698097 71.47128773 C-11.47995976 66.64930268 -11.52430216 61.82731453 -11.55371094 57.00512695 C-11.57067043 54.29614659 -11.59542114 51.5874469 -11.62857056 48.87861633 C-11.65939689 46.33331159 -11.67892615 43.78783791 -11.68563843 41.24235535 C-11.83382679 30.13094494 -11.83382679 30.13094494 -17.65234375 21.03125 C-23.60293668 17.31212942 -30.36278136 17.9343166 -37.15234375 18.46875 C-43.97827917 20.31788111 -47.66064796 24.60662152 -51.40234375 30.40625 C-53.88337996 37.22909958 -53.31797556 44.86419948 -53.36328125 52.0078125 C-53.39133038 54.46875687 -53.41999468 56.9296943 -53.44921875 59.390625 C-53.49057948 63.25292914 -53.5274887 67.11510067 -53.55371094 70.97753906 C-53.58127034 74.71706496 -53.62711674 78.45600975 -53.67578125 82.1953125 C-53.67903412 83.35060455 -53.68228699 84.50589661 -53.68563843 85.69619751 C-53.7022049 86.77436737 -53.71877136 87.85253723 -53.73583984 88.96337891 C-53.7439267 89.90823151 -53.75201355 90.85308411 -53.76034546 91.8265686 C-54.22872827 94.9836037 -55.31226398 96.88278637 -57.15234375 99.46875 C-61.37216982 102.36384897 -66.23296654 102.12254081 -71.15234375 101.46875 C-74.77643313 99.35469786 -76.69603997 97.36621634 -78.15234375 93.46875 C-78.34850299 90.61835008 -78.43582138 87.86604951 -78.42700195 85.01586914 C-78.43211288 84.16500229 -78.43722382 83.31413544 -78.44248962 82.43748474 C-78.45638406 79.62622026 -78.45542899 76.81520098 -78.453125 74.00390625 C-78.45701196 72.04861866 -78.46134663 70.09333191 -78.46611023 68.13804626 C-78.47357208 64.04000104 -78.47328136 59.94204198 -78.46801758 55.84399414 C-78.46222242 50.59368706 -78.47915527 45.34373269 -78.50236225 40.09348392 C-78.51709725 36.05543457 -78.51797162 32.01747021 -78.51485252 27.97939873 C-78.51536583 26.04371886 -78.52060539 24.10803425 -78.53066444 22.17238045 C-78.5430072 19.46502921 -78.53625024 16.7583657 -78.5246582 14.05102539 C-78.53230194 13.25242096 -78.53994568 12.45381653 -78.54782104 11.63101196 C-78.49475499 6.02098104 -77.24505646 2.91024816 -73.65234375 -1.28125 C-70.22431579 -4.13793997 -66.38996314 -3.89037029 -62.15234375 -3.53125 C-58.44844354 -1.50458762 -56.49871364 -0.05080484 -54.15234375 3.46875 C-53.76220659 5.4584495 -53.42031726 7.45894869 -53.15234375 9.46875 C-52.80945313 9.04464844 -52.4665625 8.62054688 -52.11328125 8.18359375 C-39.50893452 -5.94196724 -16.16476658 -11.05502923 0 0 Z " fill="#D80000" transform="translate(555.15234375,43.53125)"/>
<path d="M0 0 C3.52548816 3.37028367 4.82108623 4.91349243 5.62145996 9.77400208 C5.64485846 11.20436946 5.64118437 12.63535045 5.61523438 14.06567383 C5.62078339 14.85188614 5.6263324 15.63809845 5.63204956 16.44813538 C5.64381435 19.03506347 5.61959797 21.62022682 5.59375 24.20703125 C5.59203744 26.01535462 5.59210606 27.82368047 5.59387207 29.63200378 C5.59222043 33.4190553 5.57355655 37.20551376 5.54199219 40.99243164 C5.50240048 45.8275949 5.49793818 50.66197893 5.50545502 55.49727345 C5.50853747 59.23185766 5.49635764 62.96626937 5.47932434 66.70081139 C5.47233043 68.48244836 5.46916539 70.26410489 5.47001648 72.04575539 C5.46054694 85.09481061 5.05605753 94.95360532 -4.4921875 104.82421875 C-11.35755758 110.78062239 -18.68839565 111.68387507 -27.58984375 111.48046875 C-31.98196539 110.86164749 -35.1329129 109.31154059 -38.81640625 106.8984375 C-41.03383879 105.72013427 -41.03383879 105.72013427 -43.5625 106.75 C-44.366875 107.1625 -45.17125 107.575 -46 108 C-53.89867945 111.73392119 -62.38920224 112.64441291 -70.87890625 110.15625 C-78.32425969 106.79163226 -83.89377787 101.40988653 -86.875 93.75 C-88.85660421 87.14465264 -89.21583308 81.45994789 -89.25 74.5625 C-89.270625 73.52544922 -89.29125 72.48839844 -89.3125 71.41992188 C-89.34609665 64.88117375 -88.92109437 61.02541917 -84.25 56.1875 C-80.96607794 54.45431891 -78.65880015 54.55067367 -75 55 C-72.24670979 56.79562405 -70.47372539 58.05254922 -69 61 C-68.90574304 62.82759852 -68.86817663 64.6582749 -68.859375 66.48828125 C-68.83037109 68.13666992 -68.83037109 68.13666992 -68.80078125 69.81835938 C-68.76709991 72.13589466 -68.74871123 74.45370583 -68.74609375 76.77148438 C-68.64953988 83.44256865 -68.64953988 83.44256865 -65.75390625 89.3046875 C-62.72335424 91.17030391 -61.62415487 91.47931363 -58.1875 90.8125 C-57.39730469 90.67457031 -56.60710937 90.53664063 -55.79296875 90.39453125 C-55.20128906 90.26433594 -54.60960937 90.13414063 -54 90 C-53.0116518 87.0349554 -52.86457085 85.06007191 -52.84228516 81.96533203 C-52.82689194 80.42826096 -52.82689194 80.42826096 -52.81118774 78.86013794 C-52.80388641 77.75387054 -52.79658508 76.64760315 -52.7890625 75.5078125 C-52.76099709 73.17056587 -52.73233265 70.83332638 -52.703125 68.49609375 C-52.66183614 64.80713068 -52.62495221 61.11830121 -52.59863281 57.42919922 C-52.57104494 53.87178998 -52.52517557 50.3149882 -52.4765625 46.7578125 C-52.47330963 45.65559357 -52.47005676 44.55337463 -52.46670532 43.41775513 C-52.45013885 42.38673676 -52.43357239 41.35571838 -52.41650391 40.29345703 C-52.40841705 39.38983429 -52.4003302 38.48621155 -52.39199829 37.5552063 C-51.78965736 33.62890008 -49.96387189 30.96387189 -47.1875 28.1875 C-44.22434359 26.57892938 -42.33240631 26.59195025 -39 27 C-35.20587306 28.72460316 -33.52017242 30.15344725 -32 34 C-31.75517273 36.42149353 -31.75517273 36.42149353 -31.76049805 39.14819336 C-31.75676682 40.17283188 -31.75303558 41.1974704 -31.74919128 42.25315857 C-31.75332535 43.35426468 -31.75745941 44.45537079 -31.76171875 45.58984375 C-31.74630267 47.92383396 -31.72999931 50.25781845 -31.71289062 52.59179688 C-31.69641672 56.2699037 -31.68751937 59.94759162 -31.69458008 63.62573242 C-31.69719584 67.17675227 -31.66911107 70.72649433 -31.63671875 74.27734375 C-31.64692551 75.37642563 -31.65713226 76.47550751 -31.66764832 77.6078949 C-31.73070671 83.96077942 -31.73070671 83.96077942 -28.61376953 89.21582031 C-26.18404961 91.17474215 -26.18404961 91.17474215 -23.54296875 91.26953125 C-22.37701172 91.04330078 -22.37701172 91.04330078 -21.1875 90.8125 C-20.39730469 90.67457031 -19.60710937 90.53664063 -18.79296875 90.39453125 C-18.20128906 90.26433594 -17.60960938 90.13414063 -17 90 C-15.80328923 86.40986768 -15.84762545 83.13214332 -15.84228516 79.39501953 C-15.83720444 78.62232727 -15.83212372 77.84963501 -15.82688904 77.05352783 C-15.81619055 75.37568418 -15.80756832 73.6978263 -15.80076981 72.01996231 C-15.78897669 69.36348271 -15.76952301 66.70716537 -15.74765015 64.05075073 C-15.68604621 56.49791871 -15.63198336 48.94510367 -15.59863281 41.39208984 C-15.57768301 36.77194829 -15.54237813 32.15210327 -15.49787521 27.5321312 C-15.48371833 25.77233242 -15.47499348 24.01248119 -15.47182083 22.25262833 C-15.4669098 19.78935989 -15.44374785 17.32687801 -15.41650391 14.86376953 C-15.42101311 13.77571518 -15.42101311 13.77571518 -15.4256134 12.66567993 C-15.35346531 8.27116375 -14.66681297 5.51100719 -12 2 C-7.9230982 -1.39741817 -5.03749567 -1.52923976 0 0 Z " fill="#FEFAFA" transform="translate(132,35)"/>
<path d="M0 0 C2.8694861 3.23736893 3.9003512 5.20280958 4.4375 9.5 C3.96013336 13.31893311 3.04083178 15.74978643 1 19 C-2.36999202 21.24666134 -3.56105462 21.2457371 -7.5 21.1875 C-8.4590625 21.18105469 -9.418125 21.17460938 -10.40625 21.16796875 C-13 21 -13 21 -16 20 C-20.96860315 19.47833943 -24.85518979 19.4275949 -29.375 21.6875 C-35.43175872 27.02321601 -38.7066937 33.00627524 -40 41 C-40.08667532 42.86947533 -40.12507873 44.74155379 -40.12597656 46.61303711 C-40.12978333 47.71445541 -40.13359009 48.81587372 -40.13751221 49.95066833 C-40.13853943 51.13097122 -40.13956665 52.31127411 -40.140625 53.52734375 C-40.15894611 56.03581642 -40.17851577 58.54428023 -40.19921875 61.05273438 C-40.22822819 65.00072281 -40.25000131 68.94813812 -40.25048828 72.89624023 C-40.25381958 76.71128999 -40.28834391 80.5250225 -40.328125 84.33984375 C-40.3210553 85.51812241 -40.3139856 86.69640106 -40.30670166 87.91038513 C-40.44243152 97.04346396 -40.44243152 97.04346396 -43.41699219 100.72875977 C-47.45768562 104.28174379 -50.19598124 104.3934806 -55.44921875 104.35546875 C-59.5941459 103.7778449 -61.21978497 102.06536529 -64 99 C-65.27439689 95.17680932 -65.16380656 91.56950198 -65.17700195 87.5847168 C-65.18685875 86.29641464 -65.18685875 86.29641464 -65.19691467 84.98208618 C-65.21663685 82.13779615 -65.22830741 79.29355888 -65.23828125 76.44921875 C-65.24235678 75.47756083 -65.2464323 74.5059029 -65.25063133 73.5048008 C-65.27148672 68.36265907 -65.28579117 63.220544 -65.29516602 58.07836914 C-65.30623382 52.76866682 -65.34063961 47.45938318 -65.38033772 42.14982891 C-65.40648637 38.06542686 -65.41485626 33.98112489 -65.41844749 29.8966465 C-65.42331739 27.93944277 -65.43494282 25.98224363 -65.45348549 24.02512169 C-65.4778413 21.28423257 -65.47691855 18.54443107 -65.4699707 15.8034668 C-65.48278076 14.99753586 -65.49559082 14.19160492 -65.50878906 13.36125183 C-65.46051286 8.12767769 -64.46443642 5.15327992 -61 1 C-57.09350882 -1.32277854 -53.47675079 -1.47123693 -49 -1 C-44.97096436 0.93703637 -42.88102863 2.70456957 -41.125 6.75 C-40.75375 7.8225 -40.3825 8.895 -40 10 C-39.45085938 9.32904297 -39.45085938 9.32904297 -38.890625 8.64453125 C-29.78065741 -1.52826589 -12.45395191 -7.32585407 0 0 Z " fill="#D80000" transform="translate(899,41)"/>
</svg>
